<?xml version="1.0" ?>
<svg width="800px" height="800px" viewBox="0 0 24 24" version="1.1" width="24" height="24" viewBox="0 0 24 24" stroke-width="2" stroke="currentColor" fill="none" stroke-linecap="round" stroke-linejoin="round" xmlns="http://www.w3.org/2000/svg" xmlns:xlink="http://www.w3.org/1999/xlink">
<g fill="none" fill-rule="evenodd" stroke="none" stroke-width="1">
<g transform="translate(-26.000000, -15.000000)">
<g transform="translate(26.000000, 15.000000)">
<rect fill="#FFFFFF" fill-opacity="0.01" fill-rule="nonzero" height="24" width="24" x="0" y="0"/>
<polygon points="4.5 9 4.5 21 19.5 21 19.5 9 12 3"/>
<polygon points="4.5 21 4.5 9 2 11 12 3 22 11 19.5 9 19.5 21"  d="M0 0h24v24H0z" stroke="currentColor" stroke-linecap="round" stroke-linejoin="round" stroke-width="1.5"/>
<polygon points="9.5 14.5 9.5 21 14.5 21 14.5 14.5"  d="M0 0h24v24H0z" stroke="currentColor" stroke-linejoin="round" stroke-width="1.5"/>
<line  stroke="currentColor"  d="M0 0h24v24H0z" stroke-linecap="round" stroke-width="1.5" x1="4.5" x2="19.5" y1="21" y2="21"/>
</g>
</g>
</g>
</svg>